<?xml version="1.0" standalone="no"?>
<!DOCTYPE svg PUBLIC "-//W3C//DTD SVG 20010904//EN"
 "http://www.w3.org/TR/2001/REC-SVG-20010904/DTD/svg10.dtd">
<svg version="1.0" xmlns="http://www.w3.org/2000/svg"
 width="657.000000pt" height="177.000000pt" viewBox="0 0 657.000000 177.000000"
 preserveAspectRatio="xMidYMid meet">

<g transform="translate(0.000000,177.000000) scale(0.100000,-0.100000)"
fill="#000000" stroke="none">
<path d="M10 1733 c0 -3 14 -32 32 -65 63 -119 156 -197 296 -248 94 -34 120
-38 297 -49 170 -11 240 -33 300 -95 22 -23 46 -50 53 -61 11 -18 12 -14 9 27
-6 71 -60 175 -118 230 -73 68 -125 84 -315 97 -193 13 -292 38 -446 116 -60
29 -108 51 -108 48z"/>
<path d="M2215 1680 c-4 -6 -143 -10 -383 -10 -207 0 -406 -5 -442 -10 -80
-13 -180 -60 -216 -103 -56 -66 -92 -163 -114 -304 -23 -157 -49 -265 -61
-257 -5 3 -9 11 -9 18 0 30 -63 135 -107 179 -82 82 -123 96 -314 106 -203 11
-284 31 -443 110 -64 32 -116 56 -116 54 0 -2 14 -31 31 -65 45 -88 136 -176
229 -221 106 -50 181 -67 349 -77 226 -13 311 -52 368 -168 24 -50 28 -69 28
-148 0 -83 -3 -95 -34 -158 -58 -113 -167 -186 -254 -169 -131 25 -222 164
-188 290 25 93 122 173 211 173 22 0 40 5 40 11 0 19 -64 36 -155 43 -109 8
-231 36 -333 76 -41 17 -77 29 -79 27 -7 -8 99 -97 153 -127 51 -30 53 -32 40
-53 -8 -12 -22 -48 -31 -81 -31 -107 -3 -207 85 -300 176 -186 508 -135 645
99 58 98 59 106 65 450 l5 320 28 58 c20 40 42 66 70 85 l41 27 395 0 396 0
38 23 c37 24 48 38 67 86 9 26 7 35 -5 16z"/>
<path d="M1599 1466 c-93 -25 -168 -86 -212 -171 -21 -41 -47 -172 -47 -236
l0 -52 58 6 c112 10 137 38 145 162 8 126 72 226 166 260 59 20 146 19 196 -4
39 -17 95 -72 95 -92 0 -5 16 -9 35 -9 l35 0 0 75 0 75 -212 -1 c-135 0 -230
-5 -259 -13z"/>
<path d="M3995 1306 c-40 -18 -73 -56 -85 -97 -6 -19 -10 -173 -10 -346 l0
-313 30 0 30 0 0 245 0 244 68 4 67 3 -67 2 -68 2 0 75 c0 113 31 168 102 185
l33 8 -35 1 c-19 0 -48 -6 -65 -13z"/>
<path d="M2360 924 l0 -376 133 4 c121 3 136 6 186 32 70 36 142 111 178 183
25 52 28 68 28 158 0 89 -3 106 -28 156 -15 31 -49 77 -76 102 -90 84 -187
117 -343 117 l-78 0 0 -376z m241 346 c19 -5 56 -25 81 -43 191 -135 211 -412
42 -579 -61 -61 -115 -82 -221 -86 l-93 -4 0 359 c0 198 3 363 8 367 8 9 131
0 183 -14z"/>
<path d="M4730 925 l0 -375 25 0 25 0 0 375 0 375 -25 0 -25 0 0 -375z"/>
<path d="M2984 1115 c-8 -20 4 -35 27 -35 14 0 19 7 19 25 0 18 -5 25 -20 25
-11 0 -23 -7 -26 -15z"/>
<path d="M3774 1115 c-8 -19 3 -35 26 -35 19 0 30 17 23 38 -6 17 -42 15 -49
-3z"/>
<path d="M1932 1079 c-41 -52 -75 -62 -211 -67 -118 -4 -127 -6 -164 -33 -46
-34 -100 -50 -171 -53 l-51 -1 -8 -70 c-13 -119 -58 -346 -84 -430 -49 -156
-121 -255 -246 -338 -31 -21 -57 -40 -57 -42 0 -13 171 74 245 125 136 93 247
294 295 531 26 129 35 153 72 184 35 30 74 41 206 60 57 8 118 22 135 31 41
21 95 71 113 107 14 27 14 27 -18 26 -24 0 -39 -8 -56 -30z"/>
<path d="M3284 1053 c-12 -2 -34 -17 -49 -33 -23 -24 -26 -35 -23 -72 3 -24 8
-51 12 -60 7 -15 3 -18 -18 -18 -63 0 -115 -58 -89 -99 19 -31 68 -25 138 18
101 61 184 65 272 15 89 -51 140 -164 130 -287 -21 -244 -260 -346 -441 -187
-59 52 -90 122 -90 205 -1 39 2 84 7 100 6 25 5 27 -4 11 -7 -11 -14 -49 -16
-85 -9 -123 59 -236 176 -292 71 -35 178 -33 253 4 65 32 122 90 150 154 28
63 27 175 -2 240 -75 170 -286 233 -445 132 -56 -36 -85 -32 -85 11 0 41 24
50 120 47 78 -2 83 -1 106 26 13 16 24 41 24 57 0 24 7 33 40 50 44 22 54 54
20 63 -12 3 -20 0 -20 -8 0 -7 -8 -23 -19 -36 l-18 -23 -29 31 c-29 31 -62 43
-100 36z m61 -43 c18 -34 19 -65 4 -108 -28 -81 -99 -25 -86 69 10 72 54 94
82 39z"/>
<path d="M4310 1040 c-39 -13 -68 -33 -102 -68 -169 -177 -31 -459 216 -440
67 6 105 22 148 62 15 14 30 26 33 26 3 0 5 -16 5 -35 0 -31 3 -35 25 -35 l25
0 0 153 c0 139 -2 156 -24 203 -29 63 -95 120 -160 139 -65 19 -99 18 -166 -5z
m183 -23 c75 -42 126 -159 113 -259 -21 -158 -151 -254 -274 -202 -81 33 -132
110 -140 211 -16 205 144 338 301 250z"/>
<path d="M2980 795 l0 -245 25 0 25 0 0 245 0 245 -25 0 -25 0 0 -245z"/>
<path d="M3770 795 l0 -245 30 0 30 0 0 245 0 245 -30 0 -30 0 0 -245z"/>
<path d="M4840 1037 c0 -1 27 -63 60 -136 l60 -133 -49 -109 c-27 -60 -47
-109 -43 -109 4 0 27 45 52 99 24 55 47 98 50 95 3 -3 24 -47 46 -97 38 -85
44 -92 73 -95 l31 -3 -20 46 c-11 25 -38 86 -61 135 l-42 90 48 105 c26 58 46
108 43 110 -3 3 -24 -38 -48 -90 -24 -52 -46 -95 -50 -95 -3 0 -26 43 -49 95
-40 88 -46 95 -72 95 -16 0 -29 -1 -29 -3z"/>
<path d="M5360 330 c0 -95 1 -100 21 -100 15 0 19 4 15 16 -3 9 -6 54 -6 100
0 68 -3 84 -15 84 -12 0 -15 -18 -15 -100z"/>
<path d="M3869 365 c20 -36 31 -68 31 -95 0 -33 3 -40 20 -40 17 0 20 7 20 41
0 28 10 59 31 95 27 48 28 54 12 54 -11 0 -26 -14 -37 -35 -11 -19 -22 -35
-26 -35 -4 0 -15 16 -26 35 -11 21 -26 35 -37 35 -17 0 -16 -6 12 -55z"/>
<path d="M4560 325 l0 -95 43 0 c53 0 83 21 95 64 21 75 -17 126 -94 126 l-44
0 0 -95z m94 49 c35 -34 7 -114 -40 -114 -23 0 -24 3 -24 65 0 62 1 65 24 65
14 0 32 -7 40 -16z"/>
<path d="M4757 414 c-13 -13 -7 -24 14 -24 11 0 19 5 17 12 -5 14 -22 21 -31
12z"/>
<path d="M4997 414 c-13 -13 -7 -24 14 -24 11 0 19 5 17 12 -5 14 -22 21 -31
12z"/>
<path d="M5530 325 c0 -88 1 -95 20 -95 16 0 20 7 20 34 0 30 4 34 32 40 44 9
58 23 58 62 0 41 -21 54 -84 54 l-46 0 0 -95z m97 49 c4 -11 -1 -22 -12 -30
-30 -22 -45 -17 -45 16 0 25 4 30 25 30 15 0 28 -7 32 -16z"/>
<path d="M5083 390 c-3 -11 -9 -20 -14 -20 -5 0 -9 -7 -9 -15 0 -8 5 -15 10
-15 6 0 10 -19 10 -43 0 -50 13 -67 52 -67 34 0 39 27 6 32 -19 2 -24 10 -26
41 -3 32 0 37 17 37 12 0 21 7 21 15 0 8 -9 15 -20 15 -13 0 -20 7 -20 20 0
11 -5 20 -11 20 -6 0 -13 -9 -16 -20z"/>
<path d="M5983 390 c-3 -11 -9 -20 -14 -20 -5 0 -9 -7 -9 -15 0 -8 5 -15 10
-15 6 0 10 -20 10 -44 0 -48 17 -69 51 -64 31 4 36 26 7 30 -19 2 -24 10 -26
41 -3 32 0 37 17 37 12 0 21 7 21 15 0 8 -9 15 -20 15 -13 0 -20 7 -20 20 0
11 -5 20 -11 20 -6 0 -13 -9 -16 -20z"/>
<path d="M4010 343 c-25 -32 -21 -77 8 -99 28 -22 79 -17 96 8 54 77 -46 164
-104 91z m84 -25 c14 -23 -3 -52 -33 -56 -25 -4 -36 17 -27 54 8 29 42 30 60
2z"/>
<path d="M4170 311 c0 -70 10 -81 73 -79 l47 1 0 68 c0 54 -3 69 -14 69 -11 0
-16 -15 -18 -52 -3 -49 -5 -53 -28 -53 -23 0 -25 4 -28 53 -2 37 -7 52 -18 52
-11 0 -14 -14 -14 -59z"/>
<path d="M4340 298 c0 -54 3 -68 15 -68 11 0 15 11 15 36 0 45 15 74 40 74 11
0 20 6 20 14 0 10 -13 14 -45 14 l-45 -1 0 -69z"/>
<path d="M4730 355 c0 -8 5 -15 10 -15 6 0 10 -25 10 -55 0 -48 2 -55 20 -55
18 0 20 7 20 70 l0 70 -30 0 c-20 0 -30 -5 -30 -15z"/>
<path d="M4843 355 c-23 -16 -30 -45 -15 -59 4 -4 7 -20 7 -34 0 -24 5 -28 38
-32 47 -6 49 -25 3 -25 -40 0 -57 -12 -36 -25 22 -14 72 -12 93 4 19 15 23 51
5 62 -6 4 -25 11 -42 15 -29 7 -30 7 -5 8 33 1 46 17 51 61 3 34 2 35 -37 38
-25 2 -49 -3 -62 -13z m62 -35 c0 -8 -10 -16 -22 -18 -22 -3 -32 16 -16 32 12
11 38 2 38 -14z"/>
<path d="M4970 355 c0 -8 5 -15 10 -15 6 0 10 -25 10 -55 0 -48 2 -55 20 -55
18 0 20 7 20 70 l0 70 -30 0 c-20 0 -30 -5 -30 -15z"/>
<path d="M5207 363 c-15 -14 -6 -23 22 -23 43 0 47 -17 6 -24 -41 -8 -61 -36
-45 -66 9 -16 20 -20 65 -19 l55 2 -6 56 c-4 33 -13 61 -22 69 -17 13 -64 16
-75 5z m63 -88 c0 -9 -9 -15 -25 -15 -24 0 -32 10 -18 23 12 13 43 7 43 -8z"/>
<path d="M5700 355 c0 -9 9 -15 23 -15 38 0 41 -14 6 -25 -41 -14 -58 -39 -43
-62 8 -13 26 -19 66 -20 l54 -2 -6 54 c-3 29 -12 60 -19 69 -18 21 -81 22 -81
1z m63 -80 c1 -5 -10 -11 -25 -13 -16 -2 -28 1 -28 7 0 20 49 26 53 6z"/>
<path d="M5841 299 c-1 -62 1 -69 18 -69 17 0 20 8 23 52 3 46 6 53 27 58 46
11 35 29 -17 28 l-50 0 -1 -69z"/>
<path d="M6081 298 c1 -59 3 -68 19 -68 16 0 19 9 22 53 3 48 5 52 28 52 23 0
25 -4 28 -52 2 -38 7 -53 18 -53 10 0 14 14 14 54 0 70 -15 85 -80 84 l-49 -1
0 -69z"/>
<path d="M6270 350 c-26 -26 -26 -81 -1 -104 24 -22 96 -19 96 4 0 11 -9 14
-31 12 -19 -2 -36 3 -44 12 -11 14 -6 16 44 16 49 0 56 2 56 20 0 29 -36 60
-70 60 -17 0 -39 -9 -50 -20z m78 -27 c2 -9 -7 -13 -27 -13 -30 0 -39 9 -24
24 11 10 46 3 51 -11z"/>
<path d="M6430 298 c0 -54 3 -68 15 -68 11 0 15 11 15 43 0 46 13 67 42 67 10
0 18 6 18 14 0 10 -13 14 -45 14 l-45 -1 0 -69z"/>
</g>
</svg>
